{"title":"Joy Ride 2 2008 720p WEB-DL x264 SSloco","uid":11982731,"size":726118323,"categoryP":"video","categoryS":"hd___movies","magnet":"?xt=urn:btih:8e5b7f679ac026d376a5a8f9b59b25004ab5c08f&amp;dn=Joy+Ride+2+2008+720p+WEB-DL+x264+SSloco&amp;tr=udp%3A%2F%2Ftracker.openbittorrent.com%3A80&amp;tr=udp%3A%2F%2Fopen.demonii.com%3A1337&amp;tr=udp%3A%2F%2Ftracker.coppersurfer.tk%3A6969&amp;tr=udp%3A%2F%2Fexodus.desync.com%3A6969","seeders":0,"leechers":0,"uploader":"myhoes14","files":1,"time":1433263913,"description":"Source:WEBIOS [PublicHD]\n\nMedia Info\n\n\nFormat : MPEG-4\nFormat profile : Base Media\nCodec ID : isom\nFile size : 692 MiB\nDuration : 1h 31mn\nOverall bit rate mode : Variable\nOverall bit rate : 1 062 Kbps\nEncoded date : UTC 2015-04-14 20:49:37\nTagged date : UTC 2015-04-14 20:49:37\n\nVideo\nID : 1\nFormat : AVC\nFormat/Info : Advanced Video Codec\nFormat profile : &lt;a class=&quot;__cf_email__&quot; href=&quot;/cdn-cgi/l/email-protection&quot; data-cfemail=&quot;0b43626c634b473f253a&quot;&gt;[email&amp;#160;protected]&lt;/a&gt;&lt;script data-cfhash='f9e31' type=&quot;text/javascript&quot;&gt;\n/* &lt;![CDATA[ */!function(){try{var t=&quot;currentScript&quot;in document?document.currentScript:function(){for(var t=document.getElementsByTagName(&quot;script&quot;),e=t.length;e--;)if(t[e].getAttribute(&quot;data-cfhash&quot;))return t[e]}();if(t&amp;&amp;t.previousSibling){var e,r,n,i,c=t.previousSibling,a=c.getAttribute(&quot;data-cfemail&quot;);if(a){for(e=&quot;&quot;,r=parseInt(a.substr(0,2),16),n=2;a.length-n;n+=2)i=parseInt(a.substr(n,2),16)^r,e+=String.fromCharCode(i);e=document.createTextNode(e),c.parentNode.replaceChild(e,c)}t.parentNode.removeChild(t);}}catch(u){}}()/* ]]&gt; */&lt;/script&gt;\nFormat settings, CABAC : Yes\nFormat settings, ReFrames : 4 frames\nCodec ID : avc1\nCodec ID/Info : Advanced Video Coding\nDuration : 1h 31mn\nBit rate : 1 000 Kbps\nMaximum bit rate : 4 160 Kbps\nWidth : 1 280 pixels\nHeight : 720 pixels\nDisplay aspect ratio : 16:9\nFrame rate mode : Constant\nFrame rate : 23.976 fps\nColor space : YUV\nChroma subsampling : 4:2:0\nBit depth : 8 bits\nScan type : Progressive\nBits/(Pixel*Frame) : 0.045\nStream size : 651 MiB (94%)\nWriting library : x264 core 146 r2538 121396c\nEncoding settings : cabac=1 / ref=2 / deblock=1:-1:-1 / analyse=0x3:0x113 / me=hex / subme=6 / psy=1 / psy_rd=1.00:0.15 / mixed_ref=1 / me_range=16 / chroma_me=1 / trellis=1 / 8x8dct=1 / cqm=0 / deadzone=21,11 / fast_pskip=1 / chroma_qp_offset=-3 / threads=6 / lookahead_threads=1 / sliced_threads=0 / nr=0 / decimate=1 / interlaced=0 / bluray_compat=0 / constrained_intra=0 / bframes=3 / b_pyramid=2 / b_adapt=1 / b_bias=0 / direct=1 / weightb=1 / open_gop=0 / weightp=1 / keyint=240 / keyint_min=23 / scenecut=40 / intra_refresh=0 / rc_lookahead=30 / rc=2pass / mbtree=1 / bitrate=1000 / ratetol=1.0 / qcomp=0.60 / qpmin=0 / qpmax=69 / qpstep=4 / cplxblur=20.0 / qblur=0.5 / vbv_maxrate=62500 / vbv_bufsize=78125 / nal_hrd=none / filler=0 / ip_ratio=1.40 / aq=1:1.00\nEncoded date : UTC 2015-04-14 20:49:37\nTagged date : UTC 2015-04-14 20:51:17\nColor primaries : BT.709\nTransfer characteristics : BT.709\nMatrix coefficients : BT.709\nColor range : Limited\n\nAudio\nID : 2\nFormat : AAC\nFormat/Info : Advanced Audio Codec\nFormat profile : HE-AAC / LC\nCodec ID : 40\nDuration : 1h 31mn\nBit rate mode : Variable\nBit rate : 60.9 Kbps\nMaximum bit rate : 73.3 Kbps\nChannel(s) : 2 channels\nChannel positions : Front: L R\nSampling rate : 48.0 KHz / 24.0 KHz\nCompression mode : Lossy\nStream size : 39.7 MiB (6%)\nLanguage : English\nEncoded date : UTC 2015-04-14 20:43:50\nTagged date : UTC 2015-04-14 20:51:17\n\nMenu\n00:00:00.000 : Heads Up\n00:03:46.000 : Main Titles/Road Trip\n00:08:46.000 : Stranded\n00:15:04.000 : Good Fortune\n00:19:46.000 : Lucky Guess\n00:27:56.000 : Do What I Ask\n00:31:58.000 : Finding a Finger\n00:37:48.000 : Strip For Me\n00:44:23.000 : Freshly Cut\n00:47:13.000 : Escape Attempt\n00:52:49.000 : Walk on the Wild Side\n01:01:08.000 : Road Rage\n01:03:27.000 : Final Defiance\n01:07:34.000 : Gambling Men\n01:13:27.000 : Where is He?\n01:15:37.000 : Chained\n01:20:35.000 : Unwelcome Passenger\n01:23:02.000 : Fiery End\n01:26:03.000 : Dead Ahead\n01:27:23.000 : End Titles","torrent":{"xt":"urn:btih:8e5b7f679ac026d376a5a8f9b59b25004ab5c08f","amp;dn":"Joy+Ride+2+2008+720p+WEB-DL+x264+SSloco","amp;tr":["udp%3A%2F%2Ftracker.openbittorrent.com%3A80","udp%3A%2F%2Fopen.demonii.com%3A1337","udp%3A%2F%2Ftracker.coppersurfer.tk%3A6969","udp%3A%2F%2Fexodus.desync.com%3A6969"],"infoHash":"8e5b7f679ac026d376a5a8f9b59b25004ab5c08f","infoHashBuffer":{"type":"Buffer","data":[142,91,127,103,154,192,38,211,118,165,168,249,181,155,37,0,74,181,192,143]},"announce":[],"urlList":[]}}